<mxfile host="65bd71144e">
    <diagram id="-pkkqiuKd9j2AQFEiCnK" name="Page-1">
        <mxGraphModel dx="825" dy="467" grid="1" gridSize="10" guides="1" tooltips="1" connect="1" arrows="1" fold="1" page="1" pageScale="1" pageWidth="850" pageHeight="1100" math="0" shadow="0">
            <root>
                <mxCell id="0"/>
                <mxCell id="1" parent="0"/>
                <mxCell id="2" value="" style="shape=table;html=1;whiteSpace=wrap;startSize=0;container=1;collapsible=0;childLayout=tableLayout;" parent="1" vertex="1">
                    <mxGeometry x="140" y="20" width="570" height="560" as="geometry"/>
                </mxCell>
                <mxCell id="3" value="" style="shape=tableRow;horizontal=0;startSize=0;swimlaneHead=0;swimlaneBody=0;top=0;left=0;bottom=0;right=0;collapsible=0;dropTarget=0;fillColor=none;points=[[0,0.5],[1,0.5]];portConstraint=eastwest;" parent="2" vertex="1">
                    <mxGeometry width="570" height="42" as="geometry"/>
                </mxCell>
                <mxCell id="4" value="Customer" style="shape=partialRectangle;html=1;whiteSpace=wrap;connectable=0;fillColor=#dae8fc;top=0;left=0;bottom=0;right=0;overflow=hidden;strokeColor=#6c8ebf;" parent="3" vertex="1">
                    <mxGeometry width="189" height="42" as="geometry">
                        <mxRectangle width="189" height="42" as="alternateBounds"/>
                    </mxGeometry>
                </mxCell>
                <mxCell id="5" value="Airline Reservation System" style="shape=partialRectangle;html=1;whiteSpace=wrap;connectable=0;fillColor=#dae8fc;top=0;left=0;bottom=0;right=0;overflow=hidden;strokeColor=#6c8ebf;" parent="3" vertex="1">
                    <mxGeometry x="189" width="192" height="42" as="geometry">
                        <mxRectangle width="192" height="42" as="alternateBounds"/>
                    </mxGeometry>
                </mxCell>
                <mxCell id="6" value="Server" style="shape=partialRectangle;html=1;whiteSpace=wrap;connectable=0;fillColor=#dae8fc;top=0;left=0;bottom=0;right=0;overflow=hidden;strokeColor=#6c8ebf;" parent="3" vertex="1">
                    <mxGeometry x="381" width="189" height="42" as="geometry">
                        <mxRectangle width="189" height="42" as="alternateBounds"/>
                    </mxGeometry>
                </mxCell>
                <mxCell id="11" value="" style="shape=tableRow;horizontal=0;startSize=0;swimlaneHead=0;swimlaneBody=0;top=0;left=0;bottom=0;right=0;collapsible=0;dropTarget=0;fillColor=none;points=[[0,0.5],[1,0.5]];portConstraint=eastwest;" parent="2" vertex="1">
                    <mxGeometry y="42" width="570" height="518" as="geometry"/>
                </mxCell>
                <mxCell id="12" value="" style="shape=partialRectangle;html=1;whiteSpace=wrap;connectable=0;fillColor=none;top=0;left=0;bottom=0;right=0;overflow=hidden;" parent="11" vertex="1">
                    <mxGeometry width="189" height="518" as="geometry">
                        <mxRectangle width="189" height="518" as="alternateBounds"/>
                    </mxGeometry>
                </mxCell>
                <mxCell id="13" value="" style="shape=partialRectangle;html=1;whiteSpace=wrap;connectable=0;fillColor=none;top=0;left=0;bottom=0;right=0;overflow=hidden;" parent="11" vertex="1">
                    <mxGeometry x="189" width="192" height="518" as="geometry">
                        <mxRectangle width="192" height="518" as="alternateBounds"/>
                    </mxGeometry>
                </mxCell>
                <mxCell id="14" value="" style="shape=partialRectangle;html=1;whiteSpace=wrap;connectable=0;fillColor=none;top=0;left=0;bottom=0;right=0;overflow=hidden;pointerEvents=1;" parent="11" vertex="1">
                    <mxGeometry x="381" width="189" height="518" as="geometry">
                        <mxRectangle width="189" height="518" as="alternateBounds"/>
                    </mxGeometry>
                </mxCell>
                <mxCell id="40" style="edgeStyle=none;html=1;" parent="1" source="18" target="19" edge="1">
                    <mxGeometry relative="1" as="geometry"/>
                </mxCell>
                <mxCell id="18" value="" style="ellipse;whiteSpace=wrap;html=1;fillColor=#030303;" parent="1" vertex="1">
                    <mxGeometry x="220" y="70" width="20" height="20" as="geometry"/>
                </mxCell>
                <mxCell id="41" style="edgeStyle=none;html=1;" parent="1" source="19" target="20" edge="1">
                    <mxGeometry relative="1" as="geometry"/>
                </mxCell>
                <mxCell id="19" value="Enter voter Details" style="whiteSpace=wrap;html=1;fillColor=#FAFAFA;rounded=1;" parent="1" vertex="1">
                    <mxGeometry x="170" y="120" width="120" height="30" as="geometry"/>
                </mxCell>
                <mxCell id="44" style="edgeStyle=none;html=1;entryX=0;entryY=0.5;entryDx=0;entryDy=0;" parent="1" source="20" target="23" edge="1">
                    <mxGeometry relative="1" as="geometry"/>
                </mxCell>
                <mxCell id="20" value="Display Registration Page" style="whiteSpace=wrap;html=1;fillColor=#FAFAFA;rounded=1;" parent="1" vertex="1">
                    <mxGeometry x="360" y="120" width="120" height="30" as="geometry"/>
                </mxCell>
                <mxCell id="51" style="edgeStyle=none;html=1;" parent="1" source="21" target="29" edge="1">
                    <mxGeometry relative="1" as="geometry"/>
                </mxCell>
                <mxCell id="21" value="Authentication Display" style="whiteSpace=wrap;html=1;fillColor=#FAFAFA;rounded=1;" parent="1" vertex="1">
                    <mxGeometry x="360" y="238.5" width="120" height="30" as="geometry"/>
                </mxCell>
                <mxCell id="50" style="edgeStyle=none;html=1;" parent="1" source="22" target="21" edge="1">
                    <mxGeometry relative="1" as="geometry"/>
                </mxCell>
                <mxCell id="22" value="Enter voter ID" style="whiteSpace=wrap;html=1;fillColor=#FAFAFA;rounded=1;" parent="1" vertex="1">
                    <mxGeometry x="170" y="240" width="120" height="30" as="geometry"/>
                </mxCell>
                <mxCell id="25" style="edgeStyle=none;html=1;" parent="1" source="23" target="24" edge="1">
                    <mxGeometry relative="1" as="geometry"/>
                </mxCell>
                <mxCell id="23" value="Verify Voter" style="whiteSpace=wrap;html=1;fillColor=#FAFAFA;rounded=1;" parent="1" vertex="1">
                    <mxGeometry x="558" y="120" width="120" height="30" as="geometry"/>
                </mxCell>
                <mxCell id="45" style="edgeStyle=none;html=1;entryX=1;entryY=0.5;entryDx=0;entryDy=0;" parent="1" source="24" target="28" edge="1">
                    <mxGeometry relative="1" as="geometry"/>
                </mxCell>
                <mxCell id="47" value="invalid" style="edgeLabel;html=1;align=center;verticalAlign=middle;resizable=0;points=[];" parent="45" vertex="1" connectable="0">
                    <mxGeometry x="-0.4892" y="-1" relative="1" as="geometry">
                        <mxPoint x="-10" as="offset"/>
                    </mxGeometry>
                </mxCell>
                <mxCell id="48" style="edgeStyle=none;html=1;entryX=0.75;entryY=0;entryDx=0;entryDy=0;" parent="1" source="24" target="22" edge="1">
                    <mxGeometry relative="1" as="geometry">
                        <Array as="points">
                            <mxPoint x="618" y="220"/>
                            <mxPoint x="260" y="220"/>
                        </Array>
                    </mxGeometry>
                </mxCell>
                <mxCell id="49" value="valid" style="edgeLabel;html=1;align=center;verticalAlign=middle;resizable=0;points=[];" parent="48" vertex="1" connectable="0">
                    <mxGeometry x="-0.6697" y="1" relative="1" as="geometry">
                        <mxPoint x="2" as="offset"/>
                    </mxGeometry>
                </mxCell>
                <mxCell id="24" value="" style="rhombus;whiteSpace=wrap;html=1;fillColor=#ffe6cc;strokeColor=#d79b00;" parent="1" vertex="1">
                    <mxGeometry x="612" y="180" width="12" height="30" as="geometry"/>
                </mxCell>
                <mxCell id="46" style="edgeStyle=none;html=1;entryX=0.5;entryY=0;entryDx=0;entryDy=0;" parent="1" source="28" target="22" edge="1">
                    <mxGeometry relative="1" as="geometry">
                        <Array as="points">
                            <mxPoint x="230" y="195"/>
                        </Array>
                    </mxGeometry>
                </mxCell>
                <mxCell id="28" value="Register Voter" style="whiteSpace=wrap;html=1;fillColor=#FAFAFA;rounded=1;" parent="1" vertex="1">
                    <mxGeometry x="360" y="180" width="120" height="30" as="geometry"/>
                </mxCell>
                <mxCell id="52" style="edgeStyle=none;html=1;entryX=1;entryY=0.5;entryDx=0;entryDy=0;" parent="1" source="29" target="30" edge="1">
                    <mxGeometry relative="1" as="geometry">
                        <Array as="points">
                            <mxPoint x="620" y="314"/>
                        </Array>
                    </mxGeometry>
                </mxCell>
                <mxCell id="29" value="Check ID" style="whiteSpace=wrap;html=1;fillColor=#FAFAFA;rounded=1;" parent="1" vertex="1">
                    <mxGeometry x="560" y="238.5" width="120" height="30" as="geometry"/>
                </mxCell>
                <mxCell id="54" style="edgeStyle=none;html=1;entryX=0;entryY=0.5;entryDx=0;entryDy=0;" parent="1" source="30" target="62" edge="1">
                    <mxGeometry relative="1" as="geometry">
                        <mxPoint x="420" y="358.5" as="targetPoint"/>
                        <Array as="points">
                            <mxPoint x="420" y="374"/>
                        </Array>
                    </mxGeometry>
                </mxCell>
                <mxCell id="30" value="Voting Option" style="whiteSpace=wrap;html=1;fillColor=#FAFAFA;rounded=1;" parent="1" vertex="1">
                    <mxGeometry x="360" y="298.5" width="120" height="30" as="geometry"/>
                </mxCell>
                <mxCell id="53" style="edgeStyle=none;html=1;" parent="1" source="31" target="30" edge="1">
                    <mxGeometry relative="1" as="geometry"/>
                </mxCell>
                <mxCell id="31" value="Select Option" style="whiteSpace=wrap;html=1;fillColor=#FAFAFA;rounded=1;" parent="1" vertex="1">
                    <mxGeometry x="170" y="300" width="120" height="30" as="geometry"/>
                </mxCell>
                <mxCell id="57" style="edgeStyle=none;html=1;" parent="1" source="32" target="36" edge="1">
                    <mxGeometry relative="1" as="geometry"/>
                </mxCell>
                <mxCell id="32" value="Update Database" style="whiteSpace=wrap;html=1;fillColor=#FAFAFA;rounded=1;" parent="1" vertex="1">
                    <mxGeometry x="560" y="428.5" width="120" height="30" as="geometry"/>
                </mxCell>
                <mxCell id="60" style="edgeStyle=none;html=1;" parent="1" source="36" target="37" edge="1">
                    <mxGeometry relative="1" as="geometry"/>
                </mxCell>
                <mxCell id="36" value="Provide Alert" style="whiteSpace=wrap;html=1;fillColor=#FAFAFA;rounded=1;" parent="1" vertex="1">
                    <mxGeometry x="360" y="428.5" width="120" height="30" as="geometry"/>
                </mxCell>
                <mxCell id="61" style="edgeStyle=none;html=1;entryX=0.5;entryY=0;entryDx=0;entryDy=0;" parent="1" source="37" target="39" edge="1">
                    <mxGeometry relative="1" as="geometry"/>
                </mxCell>
                <mxCell id="37" value="See Allert Message" style="whiteSpace=wrap;html=1;fillColor=#FAFAFA;rounded=1;" parent="1" vertex="1">
                    <mxGeometry x="170" y="428.5" width="120" height="30" as="geometry"/>
                </mxCell>
                <mxCell id="38" value="" style="ellipse;whiteSpace=wrap;html=1;fillColor=#030303;" parent="1" vertex="1">
                    <mxGeometry x="225" y="550" width="10" height="10" as="geometry"/>
                </mxCell>
                <mxCell id="39" value="" style="ellipse;whiteSpace=wrap;html=1;fillColor=none;" parent="1" vertex="1">
                    <mxGeometry x="220" y="545" width="20" height="20" as="geometry"/>
                </mxCell>
                <mxCell id="64" style="edgeStyle=none;html=1;" parent="1" source="62" target="32" edge="1">
                    <mxGeometry relative="1" as="geometry"/>
                </mxCell>
                <mxCell id="62" value="Cast Vote" style="whiteSpace=wrap;html=1;fillColor=#FAFAFA;rounded=1;" parent="1" vertex="1">
                    <mxGeometry x="559" y="358.5" width="120" height="30" as="geometry"/>
                </mxCell>
            </root>
        </mxGraphModel>
    </diagram>
</mxfile>